name GIL03_free4Moments.mot
datacolumns 7
datarows 40
range 0.13333334 0.45833334
endheader

                time	          RHipMoment	          LHipMoment	         RKneeMoment	         LKneeMoment	        RAnkleMoment	        LAnkleMoment	
          0.13333334	        576.19024658	       -160.13490295	        670.53576660	         14.59194279	         75.83221436	        -56.32663727	
          0.14166667	        583.29992676	       -193.56481934	        661.12628174	         65.25478363	         71.03501129	        -53.49198914	
          0.15000001	        570.99157715	       -235.46859741	        641.34686279	        118.38847351	         63.12702942	        -48.78213120	
          0.15833333	        522.67230225	       -274.64968872	        623.37872314	        164.56607056	         53.97108459	        -42.90931320	
          0.16666667	        450.91760254	       -302.76800537	        607.85571289	        196.56909180	         42.92689896	        -36.63983154	
          0.17500000	        372.68609619	       -317.06237793	        589.79364014	        211.97007751	         31.23528671	        -30.70345116	
          0.18333334	        302.12451172	       -319.59283447	        564.99468994	        213.12046814	         20.54247856	        -25.68419266	
          0.19166666	        250.14315796	       -313.60787964	        530.87573242	        204.38520813	         10.54669476	        -21.90827942	
          0.20000000	        209.73616028	       -300.97451782	        494.65625000	        189.55700684	         -1.78932190	        -19.40226746	
          0.20833334	        191.66757202	       -282.32638550	        451.36068726	        171.13340759	        -13.65427113	        -17.93065834	
          0.21666667	        185.21838379	       -258.24716187	        408.08282471	        150.68894958	        -25.23765373	        -17.09321404	
          0.22499999	        178.36639404	       -229.65640259	        368.80718994	        129.09132385	        -34.78738403	        -16.47158813	
          0.23333333	        179.57061768	       -197.76654053	        331.33755493	        106.93125153	        -39.86251831	        -15.76089001	
          0.24166667	        196.53849792	       -165.09846497	        293.59899902	         85.51595306	        -40.17457199	        -14.83972549	
          0.25000000	        216.13977051	       -136.34321594	        261.83569336	         67.41880798	        -34.20841217	        -13.76398373	
          0.25833333	        228.34298706	       -116.64205933	        238.20037842	         55.07670212	        -22.64458466	        -12.73258114	
          0.26666665	        235.91055298	       -109.14669037	        220.86109924	         49.52438354	         -9.12639332	        -12.02715492	
          0.27500001	        212.77340698	       -113.66638947	        217.38796997	         50.03452682	          5.74595404	        -11.90585518	
          0.28333333	        162.88357544	       -126.77485657	        226.84649658	         54.36106110	         21.72002029	        -12.46659946	
          0.29166669	        139.20124817	       -142.83396912	        226.10292053	         59.13859558	         43.38023758	        -13.58453083	
          0.30000001	        132.74992371	       -155.27688599	        219.25979614	         60.74517822	         69.18133545	        -14.95573139	
          0.30833334	        119.08113861	       -158.32637024	        216.78045654	         56.47870255	         99.14395905	        -16.20185661	
          0.31666666	         90.96499634	       -149.03395081	        225.03292847	         45.53966522	        134.03683472	        -17.00017929	
          0.32499999	         56.83743668	       -128.04934692	        235.46018982	         28.76736259	        173.56817627	        -17.20026016	
          0.33333331	         27.14053726	        -98.45555115	        240.34342957	          7.90376329	        213.26286316	        -16.85726929	
          0.34166667	          1.23448706	        -63.66936493	        240.39321899	        -14.96299171	        254.32254028	        -16.19207382	
          0.34999999	        -29.96269608	        -25.98564911	        240.65985107	        -37.99202347	        294.10617065	        -15.49955559	
          0.35833335	        -53.42767715	         12.99684620	        232.59387207	        -59.93771362	        336.44097900	        -15.02041817	
          0.36666667	        -67.93669891	         51.88843536	        216.20446777	        -80.47142029	        384.71295166	        -14.85592461	
          0.37500000	        -81.60087585	         90.33754730	        194.50091553	       -100.54251862	        438.56481934	        -14.98714542	
          0.38333333	       -101.68195343	        129.53120422	        171.57247925	       -122.08599091	        494.15344238	        -15.35960579	
          0.39166668	       -127.79980469	        170.65049744	        146.14347839	       -146.92501831	        553.22235107	        -15.90555000	
          0.40000001	       -163.90713501	        212.97523499	        121.64947510	       -175.61944580	        616.01647949	        -16.46526527	
          0.40833333	       -207.68620300	        254.40089417	         96.17963409	       -207.19467163	        686.05444336	        -16.74773407	
          0.41666666	       -252.86938477	        293.26989746	         67.69525146	       -239.71861267	        762.68341064	        -16.40111542	
          0.42500001	       -302.66464233	        328.47998047	         39.17437363	       -270.74154663	        846.76702881	        -15.12530994	
          0.43333334	       -371.83914185	        358.50979614	         21.82629013	       -297.60662842	        936.40643311	        -12.77730656	
          0.44166666	       -445.64706421	        381.99765015	         10.23442936	       -318.30310059	       1030.30773926	         -9.45608521	
          0.44999999	       -510.02798462	        399.40441895	          1.03598356	       -332.33660889	       1123.89587402	         -5.52958727	
          0.45833334	       -566.27020264	        412.95227051	         -3.60820436	       -340.59454346	       1216.11828613	         -1.53327632	
